<svg id="ejxazqaz4faj1" xmlns="http://www.w3.org/2000/svg" xmlns:xlink="http://www.w3.org/1999/xlink" viewBox="0 0 800 500" shape-rendering="geometricPrecision" text-rendering="geometricPrecision"><style><![CDATA[#ejxazqaz4faj2_to {animation: ejxazqaz4faj2_to__to 5000ms linear 1 normal forwards}@keyframes ejxazqaz4faj2_to__to { 0% {transform: translate(0px,0px)} 88% {transform: translate(0px,0px);animation-timing-function: cubic-bezier(0.420000,0,0.580000,1)} 94% {transform: translate(-0px,-298.439819px)} 100% {transform: translate(-0px,-298.439819px)} }#ejxazqaz4faj2 {animation: ejxazqaz4faj2_c_o 5000ms linear 1 normal forwards}@keyframes ejxazqaz4faj2_c_o { 0% {opacity: 1} 88% {opacity: 1;animation-timing-function: cubic-bezier(0.215000,0.610000,0.355000,1)} 92% {opacity: 0} 100% {opacity: 0} }#ejxazqaz4faj4 {animation: ejxazqaz4faj4_c_o 5000ms linear 1 normal forwards}@keyframes ejxazqaz4faj4_c_o { 0% {opacity: 0} 76% {opacity: 0} 78% {opacity: 1} 100% {opacity: 1} }#ejxazqaz4faj5 {animation: ejxazqaz4faj5_c_o 5000ms linear 1 normal forwards}@keyframes ejxazqaz4faj5_c_o { 0% {opacity: 0} 74% {opacity: 0} 76% {opacity: 1} 100% {opacity: 1} }#ejxazqaz4faj6 {animation: ejxazqaz4faj6_c_o 5000ms linear 1 normal forwards}@keyframes ejxazqaz4faj6_c_o { 0% {opacity: 0} 72% {opacity: 0} 74% {opacity: 1} 100% {opacity: 1} }#ejxazqaz4faj7 {animation: ejxazqaz4faj7_c_o 5000ms linear 1 normal forwards}@keyframes ejxazqaz4faj7_c_o { 0% {opacity: 0} 70% {opacity: 0} 72% {opacity: 1} 100% {opacity: 1} }#ejxazqaz4faj8 {animation: ejxazqaz4faj8_c_o 5000ms linear 1 normal forwards}@keyframes ejxazqaz4faj8_c_o { 0% {opacity: 0} 68% {opacity: 0} 70% {opacity: 1} 100% {opacity: 1} }#ejxazqaz4faj9 {animation: ejxazqaz4faj9_c_o 5000ms linear 1 normal forwards}@keyframes ejxazqaz4faj9_c_o { 0% {opacity: 0} 66% {opacity: 0} 68% {opacity: 1} 100% {opacity: 1} }#ejxazqaz4faj10 {animation: ejxazqaz4faj10_c_o 5000ms linear 1 normal forwards}@keyframes ejxazqaz4faj10_c_o { 0% {opacity: 0} 64% {opacity: 0} 66% {opacity: 1} 100% {opacity: 1} }#ejxazqaz4faj11 {animation: ejxazqaz4faj11_c_o 5000ms linear 1 normal forwards}@keyframes ejxazqaz4faj11_c_o { 0% {opacity: 0} 62% {opacity: 0} 64% {opacity: 1} 100% {opacity: 1} }#ejxazqaz4faj12 {animation: ejxazqaz4faj12_c_o 5000ms linear 1 normal forwards}@keyframes ejxazqaz4faj12_c_o { 0% {opacity: 0} 60% {opacity: 0} 62% {opacity: 1} 100% {opacity: 1} }#ejxazqaz4faj13 {animation: ejxazqaz4faj13_c_o 5000ms linear 1 normal forwards}@keyframes ejxazqaz4faj13_c_o { 0% {opacity: 0} 58% {opacity: 0} 60% {opacity: 1} 100% {opacity: 1} }#ejxazqaz4faj14 {animation: ejxazqaz4faj14_c_o 5000ms linear 1 normal forwards}@keyframes ejxazqaz4faj14_c_o { 0% {opacity: 0} 50% {opacity: 0} 52% {opacity: 1} 100% {opacity: 1} }#ejxazqaz4faj15 {animation: ejxazqaz4faj15_c_o 5000ms linear 1 normal forwards}@keyframes ejxazqaz4faj15_c_o { 0% {opacity: 0} 48% {opacity: 0} 50% {opacity: 1} 100% {opacity: 1} }#ejxazqaz4faj16 {animation: ejxazqaz4faj16_c_o 5000ms linear 1 normal forwards}@keyframes ejxazqaz4faj16_c_o { 0% {opacity: 0} 46% {opacity: 0} 48% {opacity: 1} 100% {opacity: 1} }#ejxazqaz4faj17 {animation: ejxazqaz4faj17_c_o 5000ms linear 1 normal forwards}@keyframes ejxazqaz4faj17_c_o { 0% {opacity: 0} 44% {opacity: 0} 46% {opacity: 1} 100% {opacity: 1} }#ejxazqaz4faj18 {animation: ejxazqaz4faj18_c_o 5000ms linear 1 normal forwards}@keyframes ejxazqaz4faj18_c_o { 0% {opacity: 0} 42% {opacity: 0} 44% {opacity: 1} 100% {opacity: 1} }#ejxazqaz4faj19 {animation: ejxazqaz4faj19_c_o 5000ms linear 1 normal forwards}@keyframes ejxazqaz4faj19_c_o { 0% {opacity: 0} 40% {opacity: 0} 42% {opacity: 1} 100% {opacity: 1} }#ejxazqaz4faj20 {animation: ejxazqaz4faj20_c_o 5000ms linear 1 normal forwards}@keyframes ejxazqaz4faj20_c_o { 0% {opacity: 0} 38% {opacity: 0} 40% {opacity: 1} 100% {opacity: 1} }#ejxazqaz4faj21_to {animation: ejxazqaz4faj21_to__to 5000ms linear 1 normal forwards}@keyframes ejxazqaz4faj21_to__to { 0% {transform: translate(320.511401px,-193.115909px)} 28% {transform: translate(320.511401px,-193.115909px);animation-timing-function: cubic-bezier(0.550000,0.055000,0.675000,0.190000)} 34% {transform: translate(-0px,1.680173px)} 100% {transform: translate(-0px,1.680173px)} }#ejxazqaz4faj21_ts {animation: ejxazqaz4faj21_ts__ts 5000ms linear 1 normal forwards}@keyframes ejxazqaz4faj21_ts__ts { 0% {transform: scale(1.700000,1.700000)} 28% {transform: scale(1.700000,1.700000);animation-timing-function: cubic-bezier(0.550000,0.055000,0.675000,0.190000)} 34% {transform: scale(1,1)} 100% {transform: scale(1,1)} }#ejxazqaz4faj22 {
           animation-name: ejxazqaz4faj22__sz, ejxazqaz4faj22_c_o;
           animation-duration: 5000ms;
           animation-fill-mode: forwards;
           animation-timing-function: linear;
           animation-direction: normal;
           animation-iteration-count: 1;  
        }@keyframes ejxazqaz4faj22__sz { 0% {width: 93.516000px;height: 0px;animation-timing-function: cubic-bezier(0.550000,0.085000,0.680000,0.530000)} 8% {width: 93.516000px;height: 93.517647px} 100% {width: 93.516000px;height: 93.517647px} }@keyframes ejxazqaz4faj22_c_o { 0% {opacity: 0} 6% {opacity: 1} 100% {opacity: 1} }#ejxazqaz4faj23 {animation: ejxazqaz4faj23_c_o 5000ms linear 1 normal forwards}@keyframes ejxazqaz4faj23_c_o { 0% {opacity: 0} 12% {opacity: 0} 24% {opacity: 1} 100% {opacity: 1} }]]></style><g id="ejxazqaz4faj2_to" transform="translate(0,0)"><g id="ejxazqaz4faj2" transform="translate(0,0)"><g id="ejxazqaz4faj3"><path id="ejxazqaz4faj4" d="M779.909000,250.548000L779.909000,268.630000L800,268.630000L800,263.516000L792.694000,263.516000L785.388000,263.516000L785.388000,252.922000L798.174000,252.922000L798.174000,247.443000L791.781000,247.443000L785.388000,247.443000L785.388000,237.945000L792.621000,237.872000L799.817000,237.763000L799.817000,232.648000L789.881000,232.539000L779.909000,232.466000L779.909000,250.548000Z" opacity="0" clip-rule="evenodd" fill="rgb(0,0,0)" stroke="none" stroke-width="1" stroke-linejoin="round" stroke-miterlimit="1.414210"/><path id="ejxazqaz4faj5" d="M734.320000,233.123000C734.868000,235.096000,749.808000,271.114000,749.991000,270.895000C750.283000,270.639000,766.027000,233.014000,766.027000,232.648000C766.027000,232.539000,764.676000,232.466000,763.032000,232.539000L760.037000,232.648000L755.105000,244.776000C752.402000,251.461000,750.100000,256.941000,749.991000,256.941000C749.881000,256.941000,747.580000,251.425000,744.913000,244.703000L740.018000,232.466000L737.096000,232.466000C734.466000,232.466000,734.174000,232.539000,734.320000,233.123000Z" opacity="0" clip-rule="evenodd" fill="rgb(0,0,0)" stroke="none" stroke-width="1" stroke-linejoin="round" stroke-miterlimit="1.414210"/><path id="ejxazqaz4faj6" d="M714.776000,232.685000C714.630000,232.831000,714.521000,240.977000,714.521000,250.804000L714.521000,268.630000L720.365000,268.630000L720.292000,250.621000L720.183000,232.648000L717.626000,232.539000C716.201000,232.502000,714.922000,232.539000,714.776000,232.685000Z" opacity="0" clip-rule="evenodd" fill="rgb(0,0,0)" stroke="none" stroke-width="1" stroke-linejoin="round" stroke-miterlimit="1.414210"/><path id="ejxazqaz4faj7" d="M675.068000,235.205000L675.068000,237.945000L684.201000,237.945000L684.201000,253.288000L684.201000,268.630000L690.046000,268.630000L690.046000,237.945000L699.178000,237.945000L699.178000,232.466000L687.123000,232.466000L675.068000,232.466000L675.068000,235.205000Z" opacity="0" clip-rule="evenodd" fill="rgb(0,0,0)" stroke="none" stroke-width="1" stroke-linejoin="round" stroke-miterlimit="1.414210"/><path id="ejxazqaz4faj8" d="M646.210000,232.795000C641.717000,234.256000,638.502000,236.703000,635.909000,240.648000C633.900000,243.753000,632.986000,246.932000,632.986000,250.913000C632.986000,256.429000,634.776000,260.557000,638.941000,264.393000C644.530000,269.580000,652.347000,270.749000,659.616000,267.534000L661.187000,266.840000L661.187000,260.155000L659.909000,261.105000C655.817000,264.247000,650.667000,264.941000,646.320000,263.005000C643.653000,261.799000,640.767000,258.950000,639.562000,256.320000C638.868000,254.858000,638.758000,253.909000,638.758000,250.731000C638.758000,247.297000,638.831000,246.676000,639.744000,244.849000C641.023000,242.219000,643.507000,239.699000,646.137000,238.420000C647.963000,237.543000,648.658000,237.397000,651.507000,237.397000C654.941000,237.397000,656.767000,237.982000,660.018000,240.137000L661.187000,240.941000L661.187000,234.365000L659.470000,233.635000C656.584000,232.429000,654.941000,232.100000,651.507000,232.137000C649.388000,232.137000,647.489000,232.356000,646.210000,232.795000Z" opacity="0" clip-rule="evenodd" fill="rgb(0,0,0)" stroke="none" stroke-width="1" stroke-linejoin="round" stroke-miterlimit="1.414210"/><path id="ejxazqaz4faj9" d="M597.151000,232.721000C597.005000,232.831000,596.895000,240.977000,596.895000,250.804000L596.895000,268.630000L616.986000,268.630000L616.986000,263.516000L609.863000,263.516000L602.740000,263.516000L602.740000,252.922000L609.059000,252.849000L615.342000,252.740000L615.452000,250.073000L615.562000,247.443000L609.132000,247.443000L602.740000,247.443000L602.740000,237.945000L616.986000,237.945000L616.986000,232.466000L607.196000,232.466000C601.790000,232.466000,597.260000,232.575000,597.151000,232.721000Z" opacity="0" clip-rule="evenodd" fill="rgb(0,0,0)" stroke="none" stroke-width="1" stroke-linejoin="round" stroke-miterlimit="1.414210"/><path id="ejxazqaz4faj10" d="M563.178000,232.685000C563.032000,232.831000,562.922000,240.977000,562.922000,250.804000L562.922000,268.630000L582.648000,268.630000L582.648000,263.516000L575.708000,263.516000L568.767000,263.516000L568.694000,248.064000L568.584000,232.648000L566.027000,232.539000C564.603000,232.502000,563.324000,232.539000,563.178000,232.685000Z" opacity="0" clip-rule="evenodd" fill="rgb(0,0,0)" stroke="none" stroke-width="1" stroke-linejoin="round" stroke-miterlimit="1.414210"/><path id="ejxazqaz4faj11" d="M527.854000,250.548000L527.854000,268.630000L547.215000,268.630000L547.215000,263.516000L540.274000,263.516000L533.333000,263.516000L533.333000,232.466000L530.594000,232.466000L527.854000,232.466000L527.854000,250.548000Z" opacity="0" clip-rule="evenodd" fill="rgb(0,0,0)" stroke="none" stroke-width="1" stroke-linejoin="round" stroke-miterlimit="1.414210"/><path id="ejxazqaz4faj12" d="M488.037000,232.941000C483.068000,234.621000,479.050000,238.237000,476.749000,243.059000C475.580000,245.507000,475.434000,246.164000,475.324000,249.416000C475.068000,255.735000,476.420000,259.571000,480.365000,263.553000C486.320000,269.580000,494.831000,271.005000,502.575000,267.242000C505.315000,265.927000,509.516000,261.763000,510.795000,259.132000C512.986000,254.639000,513.315000,249.196000,511.744000,244.630000C509.808000,239.005000,504.584000,234.146000,498.813000,232.612000C495.890000,231.808000,490.849000,231.991000,488.037000,232.941000ZM499.397000,238.384000C502.174000,239.662000,504.110000,241.489000,505.607000,244.228000C506.813000,246.457000,506.849000,246.676000,506.849000,250.548000C506.849000,254.201000,506.740000,254.749000,505.826000,256.612000C504.584000,259.169000,501.808000,261.799000,499.142000,263.041000C496.584000,264.210000,492.420000,264.393000,489.680000,263.406000C485.772000,262.055000,482.411000,258.475000,481.242000,254.457000C480.402000,251.571000,480.731000,247.297000,481.973000,244.776000C483.580000,241.489000,486.904000,238.639000,490.155000,237.689000C492.785000,236.959000,496.950000,237.251000,499.397000,238.384000Z" opacity="0" clip-rule="evenodd" fill="rgb(0,0,0)" stroke="none" stroke-width="1" stroke-linejoin="round" stroke-miterlimit="1.414210"/><path id="ejxazqaz4faj13" d="M445.589000,232.795000C437.881000,235.279000,432.511000,242.584000,432.511000,250.658000C432.511000,256.137000,434.155000,260.046000,438.027000,263.918000C440.658000,266.548000,443.068000,267.900000,446.758000,268.849000C450.740000,269.872000,456.694000,269.105000,459.836000,267.169000L461.005000,266.438000L461.005000,263.333000C461.005000,261.616000,460.932000,260.228000,460.822000,260.228000C460.712000,260.228000,459.872000,260.776000,458.922000,261.470000C456.073000,263.516000,454.575000,263.991000,451.142000,263.991000C448.548000,264.027000,447.708000,263.881000,445.954000,263.078000C443.068000,261.763000,440.767000,259.498000,439.342000,256.612000C438.283000,254.420000,438.174000,253.945000,438.174000,250.731000C438.174000,247.735000,438.320000,246.968000,439.160000,245.178000C439.708000,244.009000,440.913000,242.256000,441.863000,241.233000C446.210000,236.594000,452.566000,235.936000,458.594000,239.589000C459.763000,240.283000,460.785000,240.868000,460.858000,240.868000C460.932000,240.868000,461.005000,239.479000,461.005000,237.763000L461.005000,234.658000L459.653000,233.963000C455.781000,231.991000,449.680000,231.516000,445.589000,232.795000Z" opacity="0" clip-rule="evenodd" fill="rgb(0,0,0)" stroke="none" stroke-width="1" stroke-linejoin="round" stroke-miterlimit="1.414210"/><path id="ejxazqaz4faj14" d="M369.680000,235.205000L369.680000,237.945000L379.178000,237.945000L379.178000,253.288000L379.178000,268.630000L384.658000,268.630000L384.658000,237.982000L389.333000,237.872000L393.973000,237.763000L393.973000,232.648000L381.845000,232.539000L369.680000,232.466000L369.680000,235.205000Z" opacity="0" clip-rule="evenodd" fill="rgb(0,0,0)" stroke="none" stroke-width="1" stroke-linejoin="round" stroke-miterlimit="1.414210"/><path id="ejxazqaz4faj15" d="M347.653000,232.685000C347.507000,232.831000,347.397000,240.977000,347.397000,250.804000L347.397000,268.630000L353.242000,268.630000L353.169000,250.621000L353.059000,232.648000L350.502000,232.539000C349.078000,232.502000,347.799000,232.539000,347.653000,232.685000Z" opacity="0" clip-rule="evenodd" fill="rgb(0,0,0)" stroke="none" stroke-width="1" stroke-linejoin="round" stroke-miterlimit="1.414210"/><path id="ejxazqaz4faj16" d="M300.712000,246.055000C300.822000,261.616000,300.785000,261.397000,304.183000,265.014000C311.160000,272.539000,323.836000,269.616000,326.721000,259.863000C327.196000,258.219000,327.306000,255.735000,327.306000,245.178000L327.306000,232.466000L324.603000,232.466000L321.900000,232.466000L321.753000,245.324000C321.644000,258.073000,321.644000,258.256000,320.767000,260.009000C319.452000,262.676000,317.333000,263.881000,314.009000,263.881000C309.772000,263.881000,307.361000,261.982000,306.521000,258C306.265000,256.904000,306.119000,251.388000,306.119000,244.338000L306.119000,232.466000L303.379000,232.466000L300.603000,232.466000L300.712000,246.055000Z" opacity="0" clip-rule="evenodd" fill="rgb(0,0,0)" stroke="none" stroke-width="1" stroke-linejoin="round" stroke-miterlimit="1.414210"/><path id="ejxazqaz4faj17" d="M270.685000,232.283000C265.169000,233.817000,262.027000,238.822000,263.489000,243.826000C264.475000,247.151000,267.032000,249.306000,272.584000,251.498000C278.320000,253.726000,280.219000,256.795000,278.356000,260.849000C277.443000,262.932000,275.836000,263.881000,273.242000,263.881000C269.991000,263.881000,268.164000,262.384000,267.434000,259.205000C267.251000,258.329000,267.032000,257.562000,266.959000,257.489000C266.922000,257.416000,265.644000,257.635000,264.183000,257.963000L261.479000,258.548000L261.735000,259.826000C262.466000,263.808000,265.680000,267.680000,269.114000,268.667000C271.781000,269.434000,275.616000,269.288000,277.808000,268.301000C281.936000,266.475000,284.566000,262.457000,284.566000,257.963000C284.566000,254.530000,283.945000,252.995000,281.644000,250.694000C279.963000,249.014000,278.904000,248.356000,275.142000,246.712000C270.064000,244.484000,268.858000,243.461000,268.858000,241.269000C268.858000,238.895000,270.977000,237.215000,274.009000,237.215000C275.836000,237.215000,277.297000,237.945000,278.466000,239.443000L279.379000,240.612000L281.425000,239.443000C282.557000,238.785000,283.470000,238.055000,283.470000,237.763000C283.470000,237.507000,282.740000,236.484000,281.826000,235.461000C279.050000,232.393000,274.776000,231.187000,270.685000,232.283000Z" opacity="0" clip-rule="evenodd" fill="rgb(0,0,0)" stroke="none" stroke-width="1" stroke-linejoin="round" stroke-miterlimit="1.414210"/><path id="ejxazqaz4faj18" d="M222.831000,250.511000L222.831000,268.630000L228.311000,268.630000L228.311000,258.767000L234.703000,258.767000L238.100000,263.699000L241.534000,268.630000L248.475000,268.630000L247.087000,266.694000C246.320000,265.671000,244.603000,263.297000,243.288000,261.507000C241.973000,259.680000,240.767000,258,240.584000,257.781000C240.438000,257.489000,241.059000,256.612000,242.301000,255.406000C244.566000,253.178000,245.699000,250.986000,246.247000,247.918000C247.306000,241.927000,243.836000,235.680000,238.247000,233.525000C236.457000,232.831000,235.215000,232.685000,229.516000,232.539000L222.831000,232.393000L222.831000,250.511000ZM234.119000,238.311000C238.904000,238.932000,241.205000,241.379000,241.242000,245.799000C241.242000,248.685000,240.110000,250.804000,237.808000,252.119000C236.347000,252.995000,235.689000,253.105000,232.256000,253.251000L228.311000,253.361000L228.311000,237.945000L229.881000,237.945000C230.721000,237.945000,232.658000,238.128000,234.119000,238.311000Z" opacity="0" clip-rule="evenodd" fill="rgb(0,0,0)" stroke="none" stroke-width="1" stroke-linejoin="round" stroke-miterlimit="1.414210"/><path id="ejxazqaz4faj19" d="M178.046000,232.977000C177.936000,233.269000,177.900000,239.151000,177.973000,246.055000C178.119000,256.868000,178.228000,258.840000,178.776000,260.411000C181.991000,269.580000,193.863000,272.247000,200.877000,265.379000C202.374000,263.954000,203.251000,262.676000,203.872000,261.142000C204.712000,258.986000,204.749000,258.804000,204.749000,245.799000L204.749000,232.648000L202.009000,232.648000L199.269000,232.648000L199.087000,245.799000C198.868000,260.374000,198.941000,260.119000,196.384000,262.347000C194.886000,263.662000,193.352000,264.027000,190.320000,263.808000C187.763000,263.626000,185.826000,262.347000,184.658000,260.009000C183.963000,258.694000,183.927000,257.744000,183.817000,245.507000L183.708000,232.466000L180.968000,232.466000C178.959000,232.466000,178.192000,232.612000,178.046000,232.977000Z" opacity="0" clip-rule="evenodd" fill="rgb(0,0,0)" stroke="none" stroke-width="1" stroke-linejoin="round" stroke-miterlimit="1.414210"/><path id="ejxazqaz4faj20" d="M140.566000,232.685000C140.384000,232.831000,140.274000,240.721000,140.274000,250.256000L140.274000,267.534000L145.753000,267.534000L145.753000,258.475000L150.064000,258.329000C153.753000,258.219000,154.630000,258.073000,156.420000,257.233000C158.977000,256.064000,161.279000,253.726000,162.521000,251.096000C163.324000,249.379000,163.470000,248.575000,163.470000,245.616000C163.470000,242.584000,163.361000,241.890000,162.447000,239.954000C161.132000,237.142000,158.429000,234.584000,155.689000,233.525000C153.900000,232.831000,152.658000,232.685000,147.215000,232.539000C143.708000,232.466000,140.712000,232.502000,140.566000,232.685000ZM154.338000,238.822000C156.164000,239.589000,156.968000,240.356000,157.881000,242.110000C158.941000,244.192000,158.685000,247.881000,157.370000,249.890000C155.909000,252.082000,154.301000,252.703000,149.699000,252.849000L145.753000,252.995000L145.753000,237.836000L149.333000,238.018000C151.379000,238.164000,153.498000,238.493000,154.338000,238.822000Z" opacity="0" clip-rule="evenodd" fill="rgb(0,0,0)" stroke="none" stroke-width="1" stroke-linejoin="round" stroke-miterlimit="1.414210"/></g><g id="ejxazqaz4faj21_to" transform="translate(320.511401,-193.115909)"><g id="ejxazqaz4faj21_ts" transform="scale(1.700000,1.700000)"><g id="ejxazqaz4faj21" transform="translate(0,0)"><rect id="ejxazqaz4faj22" width="93.516000" height="0" rx="0" ry="0" transform="matrix(1 0 0 1 0 203.24199999999999)" opacity="0" clip-rule="evenodd" fill="rgb(0,0,0)" fill-rule="evenodd" stroke="none" stroke-width="1" stroke-linejoin="round" stroke-miterlimit="1.414210"/><path id="ejxazqaz4faj23" d="M60.154000,227.863000C70.821000,233.233000,70.529000,248.502000,59.716000,253.470000C57.049000,254.712000,52.519000,255.005000,49.853000,254.128000C48.866000,253.799000,47.953000,253.543000,47.844000,253.543000C47.734000,253.543000,47.040000,254.676000,46.346000,256.100000C45.652000,257.489000,44.994000,258.658000,44.885000,258.658000C44.812000,258.658000,43.825000,258.219000,42.729000,257.671000L40.757000,256.721000L42.181000,253.872000C42.949000,252.301000,43.606000,250.913000,43.606000,250.840000C43.606000,250.731000,42.693000,250.475000,41.597000,250.219000C34.839000,248.721000,28.629000,255.151000,30.419000,261.799000C31.296000,265.123000,34.181000,267.790000,37.652000,268.557000C38.821000,268.813000,39.807000,269.032000,39.880000,269.105000C39.953000,269.142000,39.515000,270.164000,38.894000,271.370000L37.798000,273.562000L36.300000,273.233000C32.282000,272.320000,28.556000,269.251000,26.693000,265.306000C25.634000,263.078000,25.524000,262.530000,25.524000,259.388000C25.524000,256.283000,25.634000,255.662000,26.656000,253.543000C29.761000,246.968000,36.848000,243.753000,43.606000,245.836000L45.834000,246.530000L47.150000,243.863000L48.501000,241.196000L52.739000,243.315000L51.277000,246.201000L49.816000,249.123000L51.168000,249.562000C52.848000,250.110000,56.611000,249.817000,58.145000,249.014000C60.921000,247.589000,62.967000,244.521000,63.259000,241.379000C63.697000,236.667000,60.373000,232.174000,55.844000,231.443000C53.323000,231.041000,53.360000,231.114000,54.565000,228.667000L55.697000,226.438000L57.049000,226.694000C57.780000,226.840000,59.168000,227.352000,60.154000,227.863000Z" opacity="0" clip-rule="evenodd" fill="rgb(255,255,255)" fill-rule="evenodd" stroke="none" stroke-width="1" stroke-linejoin="round" stroke-miterlimit="1.414210"/></g></g></g></g></g></svg>